# Blender v2.82 (sub 7) OBJ File: 'Komplexes_Objekt.blend'
# www.blender.org
mtllib Komplexes_Objekt.mtl
o Cube
v 0.276388 0.447220 0.850649
v 0.723607 -0.447220 -0.525725
v -0.276388 -0.447220 -0.850649
v -0.894426 -0.447216 0.000000
v -0.276388 -0.447220 0.850649
v -1.000000 -1.000000 -1.000000
v 0.941455 -0.447220 0.924158
v 0.000000 -1.000000 0.000000
v -0.723607 0.447220 0.525725
v -0.723607 0.447220 -0.525725
v 0.276388 0.447220 -1.491503
v 0.894426 0.447216 -1.090446
v 0.000000 1.000000 0.000000
v -0.162456 -1.491375 0.499995
v -0.688189 -0.525736 -0.499997
v 0.951058 0.000000 -0.309013
v 0.425323 -0.850654 0.309011
v -0.688189 -0.525736 0.499997
v 0.850648 -0.525736 -0.982466
v -0.525730 -0.850652 0.000000
v 0.951058 0.000000 0.309013
v 0.425323 -0.850654 -0.309011
v 0.262869 -0.525738 0.809012
v 0.262869 -0.525738 -0.809012
v -0.162456 -0.850654 -1.480059
v 0.000000 0.000000 1.694514
v 0.587786 0.000000 0.809017
v -1.431883 0.000000 0.309013
v -0.587786 0.479635 1.114419
v -0.587786 0.268114 -1.994855
v -0.951058 0.000000 -0.309013
v 1.466474 0.000000 -1.750665
v 0.000000 0.000000 -1.000000
v 1.860136 0.525736 0.499997
v -0.262869 0.525738 0.809012
v -1.417160 0.525736 0.000000
v -0.262869 0.525738 -0.809012
v 0.688189 0.525736 -0.499997
v 0.162456 0.850654 0.499995
v 0.525730 1.984367 0.000000
v -0.425323 1.291808 0.309011
v -0.425323 0.850654 -0.887110
v 0.162456 0.850654 -0.499995
vt 0.272727 0.000000
vt 0.227273 0.078731
vt 0.318182 0.078731
vt 0.727272 0.157461
vt 0.681818 0.078731
vt 0.636363 0.157461
vt 0.818181 0.000000
vt 0.772726 0.078731
vt 0.863635 0.078731
vt 0.090909 0.000000
vt 0.045454 0.078731
vt 0.136363 0.078731
vt 0.454545 0.000000
vt 0.409090 0.078731
vt 0.500000 0.078731
vt 0.681818 0.236191
vt 0.909090 0.157461
vt 0.818181 0.157461
vt 0.863635 0.236191
vt 0.181818 0.157461
vt 0.090909 0.157461
vt 0.136363 0.236191
vt 0.363636 0.157461
vt 0.272727 0.157461
vt 0.318182 0.236191
vt 0.545454 0.157461
vt 0.454545 0.157461
vt 0.500000 0.236191
vt 0.772726 0.236191
vt 0.954545 0.236191
vt 0.227273 0.236191
vt 0.409090 0.236191
vt 0.590909 0.236191
vt 0.818181 0.314921
vt 0.727272 0.314921
vt 0.772726 0.393651
vt 1.000000 0.314921
vt 0.909091 0.314921
vt 0.954545 0.393651
vt 0.272727 0.314921
vt 0.181818 0.314921
vt 0.227273 0.393651
vt 0.454545 0.314921
vt 0.363636 0.314921
vt 0.409090 0.393651
vt 0.636363 0.314921
vt 0.545454 0.314921
vt 0.590909 0.393651
vt 0.500000 0.393651
vt 0.545454 0.472382
vt 0.318182 0.393651
vt 0.363636 0.472382
vt 0.136363 0.393651
vt 0.181818 0.472382
vt 0.090909 0.314921
vt 0.863635 0.393651
vt 0.909090 0.472382
vt 0.681818 0.393651
vt 0.727272 0.472382
vt 0.045454 0.236191
vt 0.000000 0.157461
vt 0.590909 0.078731
vt 0.636363 0.000000
vn -0.2727 -0.9598 -0.0669
vn 0.6134 -0.7898 0.0033
vn 0.5762 -0.6687 -0.4699
vn -0.1900 -0.6687 -0.7189
vn 0.2473 -0.9610 -0.1241
vn 0.9957 -0.0820 -0.0440
vn -0.0886 -0.8678 0.4889
vn -0.5934 -0.7959 0.1198
vn -0.2362 -0.8515 -0.4681
vn 0.2719 -0.9453 -0.1802
vn 0.6345 0.6204 0.4610
vn -0.7881 -0.3983 0.4692
vn -0.6990 -0.4643 -0.5439
vn 0.6330 -0.5672 -0.5269
vn 0.7924 -0.5403 0.2833
vn 0.1284 0.6710 0.7303
vn -0.5305 0.3816 0.7570
vn -0.6039 -0.2356 -0.7615
vn -0.3659 0.8466 -0.3865
vn -0.9437 0.0083 -0.3307
vn -0.8111 0.4332 -0.3929
vn 0.2088 0.3378 -0.9177
vn 0.5055 0.8179 -0.2747
vn 0.1554 0.9592 -0.2360
vn 0.5485 0.0741 -0.8329
vn -0.4269 -0.4075 -0.8073
vn 0.3652 0.8734 -0.3221
vn -0.5250 0.7985 -0.2945
vn -0.5305 0.3816 0.7569
vn 0.5892 0.8065 0.0494
vn 0.1591 0.5630 0.8110
vn 0.0385 0.6617 0.7488
vn -0.8111 0.4332 0.3929
vn 0.0732 0.3827 0.9210
vn 0.7265 0.5049 -0.4661
vn -0.8361 -0.5000 -0.2256
vn 0.8099 0.5101 0.2896
vn 0.3060 0.9306 -0.2008
vn -0.7823 -0.1739 -0.5981
vn 0.7915 0.5152 -0.3288
vn -0.2493 0.9583 -0.1399
vn -0.6077 -0.0741 -0.7907
vn -0.7475 -0.3209 -0.5816
vn -0.5076 0.4471 0.7365
vn -0.1571 0.9874 -0.0181
vn 0.2797 0.8597 0.4274
vn 0.0886 0.8678 0.4889
vn 0.2131 0.0576 0.9753
vn 0.4264 -0.8498 0.3098
vn 0.5240 -0.8049 -0.2784
vn -0.3739 -0.5716 -0.7304
vn -0.3991 -0.4827 -0.7796
vn 0.0247 -0.3304 -0.9435
vn -0.9080 0.3976 -0.1324
vn -0.8992 -0.3585 -0.2508
vn -0.8897 -0.3304 -0.3151
vn -0.5498 0.8314 0.0811
vn -0.4916 -0.4178 0.7640
vn -0.5510 -0.3944 0.7354
vn 0.7366 0.4674 0.4889
vn 0.7407 -0.4578 0.4917
vn -0.1787 0.1104 0.9777
vn 0.9921 0.1256 0.0000
vn 0.9822 -0.1876 0.0000
vn -0.7781 0.5461 -0.3103
vn 0.4713 -0.6617 -0.5831
vn 0.8684 -0.2365 -0.4359
vn 0.1624 0.8438 -0.5115
vn -0.7240 -0.6617 0.1947
vn -0.8780 -0.4780 0.0254
vn -0.5796 -0.3156 0.7513
vn 0.0273 -0.3156 0.9485
vn 0.6954 -0.4780 0.5366
vn 0.0043 -0.8379 0.5459
vn -0.8364 0.4517 -0.3103
vn 0.6071 -0.7947 0.0000
vn 0.3313 -0.9435 0.0000
vn -0.5625 0.6461 -0.5159
vn -0.7391 -0.6487 -0.1814
vn -0.7240 -0.6617 -0.1947
usemtl Material
s off
f 8/1/1 20/2/1 25/3/1
f 7/4/2 17/5/2 19/6/2
f 8/7/3 17/8/3 14/9/3
f 8/10/4 14/11/4 20/12/4
f 8/13/5 25/14/5 22/15/5
f 7/4/6 19/6/6 21/16/6
f 5/17/7 23/18/7 26/19/7
f 4/20/8 18/21/8 28/22/8
f 3/23/9 15/24/9 30/25/9
f 2/26/10 24/27/10 32/28/10
f 7/4/11 21/16/11 27/29/11
f 5/17/12 26/19/12 29/30/12
f 4/20/13 28/22/13 31/31/13
f 3/23/14 30/25/14 33/32/14
f 2/26/15 32/28/15 16/33/15
f 1/34/16 34/35/16 39/36/16
f 9/37/17 35/38/17 41/39/17
f 10/40/18 36/41/18 42/42/18
f 11/43/19 37/44/19 43/45/19
f 12/46/20 38/47/20 40/48/20
f 40/48/21 43/49/21 13/50/21
f 40/48/22 38/47/22 43/49/22
f 38/47/23 11/43/23 43/49/23
f 43/45/24 42/51/24 13/52/24
f 43/45/25 37/44/25 42/51/25
f 37/44/26 10/40/26 42/51/26
f 42/42/27 41/53/27 13/54/27
f 42/42/28 36/41/28 41/53/28
f 36/41/29 9/55/29 41/53/29
f 41/39/30 39/56/30 13/57/30
f 41/39/31 35/38/31 39/56/31
f 35/38/32 1/34/32 39/56/32
f 39/36/33 40/58/33 13/59/33
f 39/36/34 34/35/34 40/58/34
f 34/35/35 12/46/35 40/58/35
f 16/33/36 38/47/36 12/46/36
f 16/33/37 32/28/37 38/47/37
f 32/28/38 11/43/38 38/47/38
f 33/32/39 37/44/39 11/43/39
f 33/32/40 30/25/40 37/44/40
f 30/25/41 10/40/41 37/44/41
f 31/31/42 36/41/42 10/40/42
f 31/31/43 28/22/43 36/41/43
f 28/22/44 9/55/44 36/41/44
f 29/30/45 35/38/45 9/37/45
f 29/30/46 26/19/46 35/38/46
f 26/19/47 1/34/47 35/38/47
f 27/29/48 34/35/48 1/34/48
f 27/29/49 21/16/49 34/35/49
f 21/16/50 12/46/50 34/35/50
f 32/28/51 33/32/51 11/43/51
f 32/28/52 24/27/52 33/32/52
f 24/27/53 3/23/53 33/32/53
f 30/25/54 31/31/54 10/40/54
f 30/25/55 15/24/55 31/31/55
f 15/24/56 4/20/56 31/31/56
f 28/22/57 29/60/57 9/55/57
f 28/22/58 18/21/58 29/60/58
f 18/21/59 5/61/59 29/60/59
f 26/19/60 27/29/60 1/34/60
f 26/19/61 23/18/61 27/29/61
f 23/18/62 7/4/62 27/29/62
f 21/16/63 16/33/63 12/46/63
f 21/16/64 19/6/64 16/33/64
f 19/6/65 2/26/65 16/33/65
f 22/15/66 24/27/66 2/26/66
f 22/15/67 25/14/67 24/27/67
f 25/14/68 3/23/68 24/27/68
f 20/12/69 18/21/69 4/20/69
f 20/12/70 14/11/70 18/21/70
f 14/11/71 5/61/71 18/21/71
f 14/9/72 23/18/72 5/17/72
f 14/9/73 17/8/73 23/18/73
f 17/8/74 7/4/74 23/18/74
f 19/6/75 22/62/75 2/26/75
f 19/6/76 17/5/76 22/62/76
f 17/5/77 8/63/77 22/62/77
f 25/3/78 15/24/78 3/23/78
f 25/3/79 20/2/79 15/24/79
f 20/2/80 4/20/80 15/24/80
o Cube.001-colonly_Cube.001
v 0.276388 0.447220 0.850649
v 0.723607 -0.447220 -0.525725
v -0.276388 -0.447220 -0.850649
v -0.894426 -0.447216 0.000000
v -0.276388 -0.447220 0.850649
v -1.000000 -1.000000 -1.000000
v 0.941455 -0.447220 0.924158
v 0.000000 -1.000000 0.000000
v -0.723607 0.447220 0.525725
v -0.723607 0.447220 -0.525725
v 0.276388 0.447220 -1.491503
v 0.894426 0.447216 -1.090446
v 0.000000 1.000000 0.000000
v -0.162456 -1.491375 0.499995
v -0.688189 -0.525736 -0.499997
v 0.951058 0.000000 -0.309013
v 0.425323 -0.850654 0.309011
v -0.688189 -0.525736 0.499997
v 0.850648 -0.525736 -0.982466
v -0.525730 -0.850652 0.000000
v 0.951058 0.000000 0.309013
v 0.425323 -0.850654 -0.309011
v 0.262869 -0.525738 0.809012
v 0.262869 -0.525738 -0.809012
v -0.162456 -0.850654 -1.480059
v 0.000000 0.000000 1.694514
v 0.587786 0.000000 0.809017
v -1.431883 0.000000 0.309013
v -0.587786 0.479635 1.114419
v -0.587786 0.268114 -1.994855
v -0.951058 0.000000 -0.309013
v 1.466474 0.000000 -1.750665
v 0.000000 0.000000 -1.000000
v 1.860136 0.525736 0.499997
v -0.262869 0.525738 0.809012
v -1.417160 0.525736 0.000000
v -0.262869 0.525738 -0.809012
v 0.688189 0.525736 -0.499997
v 0.162456 0.850654 0.499995
v 0.525730 1.984367 0.000000
v -0.425323 1.291808 0.309011
v -0.425323 0.850654 -0.887110
v 0.162456 0.850654 -0.499995
vt 0.272727 0.000000
vt 0.227273 0.078731
vt 0.318182 0.078731
vt 0.727272 0.157461
vt 0.681818 0.078731
vt 0.636363 0.157461
vt 0.818181 0.000000
vt 0.772726 0.078731
vt 0.863635 0.078731
vt 0.090909 0.000000
vt 0.045454 0.078731
vt 0.136363 0.078731
vt 0.454545 0.000000
vt 0.409090 0.078731
vt 0.500000 0.078731
vt 0.681818 0.236191
vt 0.909090 0.157461
vt 0.818181 0.157461
vt 0.863635 0.236191
vt 0.181818 0.157461
vt 0.090909 0.157461
vt 0.136363 0.236191
vt 0.363636 0.157461
vt 0.272727 0.157461
vt 0.318182 0.236191
vt 0.545454 0.157461
vt 0.454545 0.157461
vt 0.500000 0.236191
vt 0.772726 0.236191
vt 0.954545 0.236191
vt 0.227273 0.236191
vt 0.409090 0.236191
vt 0.590909 0.236191
vt 0.818181 0.314921
vt 0.727272 0.314921
vt 0.772726 0.393651
vt 1.000000 0.314921
vt 0.909091 0.314921
vt 0.954545 0.393651
vt 0.272727 0.314921
vt 0.181818 0.314921
vt 0.227273 0.393651
vt 0.454545 0.314921
vt 0.363636 0.314921
vt 0.409090 0.393651
vt 0.636363 0.314921
vt 0.545454 0.314921
vt 0.590909 0.393651
vt 0.500000 0.393651
vt 0.545454 0.472382
vt 0.318182 0.393651
vt 0.363636 0.472382
vt 0.136363 0.393651
vt 0.181818 0.472382
vt 0.090909 0.314921
vt 0.863635 0.393651
vt 0.909090 0.472382
vt 0.681818 0.393651
vt 0.727272 0.472382
vt 0.045454 0.236191
vt 0.000000 0.157461
vt 0.590909 0.078731
vt 0.636363 0.000000
vn -0.2727 -0.9598 -0.0669
vn 0.6134 -0.7898 0.0033
vn 0.5762 -0.6687 -0.4699
vn -0.1900 -0.6687 -0.7189
vn 0.2473 -0.9610 -0.1241
vn 0.9957 -0.0820 -0.0440
vn -0.0886 -0.8678 0.4889
vn -0.5934 -0.7959 0.1198
vn -0.2362 -0.8515 -0.4681
vn 0.2719 -0.9453 -0.1802
vn 0.6345 0.6204 0.4610
vn -0.7881 -0.3983 0.4692
vn -0.6990 -0.4643 -0.5439
vn 0.6330 -0.5672 -0.5269
vn 0.7924 -0.5403 0.2833
vn 0.1284 0.6710 0.7303
vn -0.5305 0.3816 0.7570
vn -0.6039 -0.2356 -0.7615
vn -0.3659 0.8466 -0.3865
vn -0.9437 0.0083 -0.3307
vn -0.8111 0.4332 -0.3929
vn 0.2088 0.3378 -0.9177
vn 0.5055 0.8179 -0.2747
vn 0.1554 0.9592 -0.2360
vn 0.5485 0.0741 -0.8329
vn -0.4269 -0.4075 -0.8073
vn 0.3652 0.8734 -0.3221
vn -0.5250 0.7985 -0.2945
vn -0.5305 0.3816 0.7569
vn 0.5892 0.8065 0.0494
vn 0.1591 0.5630 0.8110
vn 0.0385 0.6617 0.7488
vn -0.8111 0.4332 0.3929
vn 0.0732 0.3827 0.9210
vn 0.7265 0.5049 -0.4661
vn -0.8361 -0.5000 -0.2256
vn 0.8099 0.5101 0.2896
vn 0.3060 0.9306 -0.2008
vn -0.7823 -0.1739 -0.5981
vn 0.7915 0.5152 -0.3288
vn -0.2493 0.9583 -0.1399
vn -0.6077 -0.0741 -0.7907
vn -0.7475 -0.3209 -0.5816
vn -0.5076 0.4471 0.7365
vn -0.1571 0.9874 -0.0181
vn 0.2797 0.8597 0.4274
vn 0.0886 0.8678 0.4889
vn 0.2131 0.0576 0.9753
vn 0.4264 -0.8498 0.3098
vn 0.5240 -0.8049 -0.2784
vn -0.3739 -0.5716 -0.7304
vn -0.3991 -0.4827 -0.7796
vn 0.0247 -0.3304 -0.9435
vn -0.9080 0.3976 -0.1324
vn -0.8992 -0.3585 -0.2508
vn -0.8897 -0.3304 -0.3151
vn -0.5498 0.8314 0.0811
vn -0.4916 -0.4178 0.7640
vn -0.5510 -0.3944 0.7354
vn 0.7366 0.4674 0.4889
vn 0.7407 -0.4578 0.4917
vn -0.1787 0.1104 0.9777
vn 0.9921 0.1256 0.0000
vn 0.9822 -0.1876 0.0000
vn -0.7781 0.5461 -0.3103
vn 0.4713 -0.6617 -0.5831
vn 0.8684 -0.2365 -0.4359
vn 0.1624 0.8438 -0.5115
vn -0.7240 -0.6617 0.1947
vn -0.8780 -0.4780 0.0254
vn -0.5796 -0.3156 0.7513
vn 0.0273 -0.3156 0.9485
vn 0.6954 -0.4780 0.5366
vn 0.0043 -0.8379 0.5459
vn -0.8364 0.4517 -0.3103
vn 0.6071 -0.7947 0.0000
vn 0.3313 -0.9435 0.0000
vn -0.5625 0.6461 -0.5159
vn -0.7391 -0.6487 -0.1814
vn -0.7240 -0.6617 -0.1947
usemtl Material.001
s off
f 51/64/81 63/65/81 68/66/81
f 50/67/82 60/68/82 62/69/82
f 51/70/83 60/71/83 57/72/83
f 51/73/84 57/74/84 63/75/84
f 51/76/85 68/77/85 65/78/85
f 50/67/86 62/69/86 64/79/86
f 48/80/87 66/81/87 69/82/87
f 47/83/88 61/84/88 71/85/88
f 46/86/89 58/87/89 73/88/89
f 45/89/90 67/90/90 75/91/90
f 50/67/91 64/79/91 70/92/91
f 48/80/92 69/82/92 72/93/92
f 47/83/93 71/85/93 74/94/93
f 46/86/94 73/88/94 76/95/94
f 45/89/95 75/91/95 59/96/95
f 44/97/96 77/98/96 82/99/96
f 52/100/97 78/101/97 84/102/97
f 53/103/98 79/104/98 85/105/98
f 54/106/99 80/107/99 86/108/99
f 55/109/100 81/110/100 83/111/100
f 83/111/101 86/112/101 56/113/101
f 83/111/102 81/110/102 86/112/102
f 81/110/103 54/106/103 86/112/103
f 86/108/104 85/114/104 56/115/104
f 86/108/105 80/107/105 85/114/105
f 80/107/106 53/103/106 85/114/106
f 85/105/107 84/116/107 56/117/107
f 85/105/108 79/104/108 84/116/108
f 79/104/109 52/118/109 84/116/109
f 84/102/110 82/119/110 56/120/110
f 84/102/111 78/101/111 82/119/111
f 78/101/112 44/97/112 82/119/112
f 82/99/113 83/121/113 56/122/113
f 82/99/114 77/98/114 83/121/114
f 77/98/115 55/109/115 83/121/115
f 59/96/116 81/110/116 55/109/116
f 59/96/117 75/91/117 81/110/117
f 75/91/118 54/106/118 81/110/118
f 76/95/119 80/107/119 54/106/119
f 76/95/120 73/88/120 80/107/120
f 73/88/121 53/103/121 80/107/121
f 74/94/122 79/104/122 53/103/122
f 74/94/123 71/85/123 79/104/123
f 71/85/124 52/118/124 79/104/124
f 72/93/125 78/101/125 52/100/125
f 72/93/126 69/82/126 78/101/126
f 69/82/127 44/97/127 78/101/127
f 70/92/128 77/98/128 44/97/128
f 70/92/129 64/79/129 77/98/129
f 64/79/130 55/109/130 77/98/130
f 75/91/131 76/95/131 54/106/131
f 75/91/132 67/90/132 76/95/132
f 67/90/133 46/86/133 76/95/133
f 73/88/134 74/94/134 53/103/134
f 73/88/135 58/87/135 74/94/135
f 58/87/136 47/83/136 74/94/136
f 71/85/137 72/123/137 52/118/137
f 71/85/138 61/84/138 72/123/138
f 61/84/139 48/124/139 72/123/139
f 69/82/140 70/92/140 44/97/140
f 69/82/141 66/81/141 70/92/141
f 66/81/142 50/67/142 70/92/142
f 64/79/143 59/96/143 55/109/143
f 64/79/144 62/69/144 59/96/144
f 62/69/145 45/89/145 59/96/145
f 65/78/146 67/90/146 45/89/146
f 65/78/147 68/77/147 67/90/147
f 68/77/148 46/86/148 67/90/148
f 63/75/149 61/84/149 47/83/149
f 63/75/150 57/74/150 61/84/150
f 57/74/151 48/124/151 61/84/151
f 57/72/152 66/81/152 48/80/152
f 57/72/153 60/71/153 66/81/153
f 60/71/154 50/67/154 66/81/154
f 62/69/155 65/125/155 45/89/155
f 62/69/156 60/68/156 65/125/156
f 60/68/157 51/126/157 65/125/157
f 68/66/158 58/87/158 46/86/158
f 68/66/159 63/65/159 58/87/159
f 63/65/160 47/83/160 58/87/160
