# Blender v2.82 (sub 7) OBJ File: ''
# www.blender.org
mtllib ZylinderPlusHole.mtl
o Cylinder
v 0.000000 -1.000000 -1.000000
v -0.000000 1.000000 -0.597341
v 0.195090 -1.000000 -0.980785
v 0.116535 1.000000 -0.585863
v 0.382683 -1.000000 -0.923880
v 0.228593 1.000000 -0.551871
v 0.555570 -1.000000 -0.831470
v 0.331865 1.000000 -0.496671
v 0.707107 -1.000000 -0.707107
v 0.422384 1.000000 -0.422384
v 0.831470 -1.000000 -0.555570
v 0.496671 1.000000 -0.331865
v 0.923880 -1.000000 -0.382683
v 0.551871 1.000000 -0.228593
v 0.980785 -1.000000 -0.195090
v 0.585863 1.000000 -0.116535
v 1.000000 -1.000000 -0.000000
v 0.597341 1.000000 -0.000000
v 0.980785 -1.000000 0.195090
v 0.585863 1.000000 0.116535
v 0.923880 -1.000000 0.382683
v 0.551871 1.000000 0.228592
v 0.831470 -1.000000 0.555570
v 0.496671 1.000000 0.331865
v 0.707107 -1.000000 0.707107
v 0.422384 1.000000 0.422384
v 0.555570 -1.000000 0.831470
v 0.331865 1.000000 0.496671
v 0.382683 -1.000000 0.923880
v 0.228592 1.000000 0.551871
v 0.195090 -1.000000 0.980785
v 0.116535 1.000000 0.585863
v -0.000000 -1.000000 1.000000
v -0.000000 1.000000 0.597341
v -0.195091 -1.000000 0.980785
v -0.116536 1.000000 0.585863
v -0.382684 -1.000000 0.923879
v -0.228593 1.000000 0.551871
v -0.555571 -1.000000 0.831469
v -0.331865 1.000000 0.496671
v -0.707107 -1.000000 0.707106
v -0.422384 1.000000 0.422384
v -0.831470 -1.000000 0.555570
v -0.496671 1.000000 0.331865
v -0.923880 -1.000000 0.382683
v -0.551871 1.000000 0.228592
v -0.980785 -1.000000 0.195089
v -0.585863 1.000000 0.116535
v -1.000000 -1.000000 -0.000001
v -0.597341 1.000000 -0.000001
v -0.980785 -1.000000 -0.195091
v -0.585863 1.000000 -0.116536
v -0.923879 -1.000000 -0.382684
v -0.551871 1.000000 -0.228593
v -0.831469 -1.000000 -0.555571
v -0.496671 1.000000 -0.331865
v -0.707106 -1.000000 -0.707108
v -0.422383 1.000000 -0.422385
v -0.555569 -1.000000 -0.831470
v -0.331864 1.000000 -0.496671
v -0.382682 -1.000000 -0.923880
v -0.228592 1.000000 -0.551871
v -0.195089 -1.000000 -0.980786
v -0.116534 1.000000 -0.585863
v -0.769287 -1.000000 -0.631339
v -0.459527 1.000000 -0.377125
v 0.000000 0.000000 -1.000000
v 0.195090 0.000000 -0.980785
v 0.382683 0.000000 -0.923880
v 0.555570 0.000000 -0.831470
v 0.707107 0.000000 -0.707107
v 0.831470 0.000000 -0.555570
v 0.923880 0.000000 -0.382683
v 0.980785 0.000000 -0.195090
v 1.000000 0.000000 -0.000000
v 0.980785 0.000000 0.195090
v 0.923880 0.000000 0.382683
v 0.831470 0.000000 0.555570
v 0.707107 0.000000 0.707107
v 0.555570 0.000000 0.831470
v 0.382683 0.000000 0.923880
v 0.195090 0.000000 0.980785
v -0.000000 0.000000 1.000000
v -0.195091 0.000000 0.980785
v -0.382684 0.000000 0.923879
v -0.555571 0.000000 0.831469
v -0.707107 0.000000 0.707106
v -0.831470 0.000000 0.555570
v -0.923880 0.000000 0.382683
v -0.980785 0.000000 0.195089
v -1.000000 0.000000 -0.000001
v -0.980785 0.000000 -0.195091
v -0.923879 0.000000 -0.382684
v -0.831469 0.000000 -0.555571
v -0.707106 0.000000 -0.707108
v -0.555569 0.000000 -0.831470
v -0.382682 0.000000 -0.923880
v -0.195089 0.000000 -0.980786
v -0.769287 0.000000 -0.631339
v 0.950364 -1.000000 -0.295376
v 0.566899 1.000000 -0.179053
v 0.950364 0.000000 -0.295376
v 0.195090 1.000000 -0.980785
v 0.000000 1.000000 -1.000000
v 0.382683 1.000000 -0.923880
v 0.555570 1.000000 -0.831470
v 0.707107 1.000000 -0.707107
v 0.831470 1.000000 -0.555570
v 0.923880 1.000000 -0.382683
v 0.950364 1.000000 -0.295376
v 1.000000 1.000000 -0.000000
v 0.980785 1.000000 -0.195090
v 0.980785 1.000000 0.195090
v 0.923880 1.000000 0.382683
v 0.831470 1.000000 0.555570
v 0.707107 1.000000 0.707107
v 0.555570 1.000000 0.831470
v 0.382683 1.000000 0.923880
v 0.195090 1.000000 0.980785
v -0.000000 1.000000 1.000000
v -0.195091 1.000000 0.980785
v -0.382684 1.000000 0.923879
v -0.555571 1.000000 0.831469
v -0.707107 1.000000 0.707106
v -0.831470 1.000000 0.555570
v -0.923880 1.000000 0.382683
v -0.980785 1.000000 0.195089
v -1.000000 1.000000 -0.000001
v -0.980785 1.000000 -0.195091
v -0.923879 1.000000 -0.382684
v -0.831469 1.000000 -0.555571
v -0.769287 1.000000 -0.631339
v -0.555569 1.000000 -0.831470
v -0.707106 1.000000 -0.707108
v -0.382682 1.000000 -0.923880
v -0.195089 1.000000 -0.980786
v 0.154138 1.000000 -0.774905
v -0.000000 1.000000 -0.790087
v 0.302353 1.000000 -0.729945
v 0.438949 1.000000 -0.656933
v 0.558676 1.000000 -0.558676
v 0.656933 1.000000 -0.438949
v 0.729945 1.000000 -0.302353
v 0.750457 1.000000 -0.234735
v 0.790087 1.000000 -0.000000
v 0.774905 1.000000 -0.154138
v 0.774905 1.000000 0.154138
v 0.729945 1.000000 0.302353
v 0.656933 1.000000 0.438949
v 0.558676 1.000000 0.558676
v 0.438949 1.000000 0.656933
v 0.302353 1.000000 0.729945
v 0.154138 1.000000 0.774905
v -0.000000 1.000000 0.790087
v -0.154139 1.000000 0.774905
v -0.302353 1.000000 0.729945
v -0.438949 1.000000 0.656933
v -0.558676 1.000000 0.558675
v -0.656933 1.000000 0.438948
v -0.729945 1.000000 0.302352
v -0.774905 1.000000 0.154138
v -0.790087 1.000000 -0.000001
v -0.774905 1.000000 -0.154139
v -0.729944 1.000000 -0.302354
v -0.656932 1.000000 -0.438949
v -0.607804 1.000000 -0.498813
v -0.438948 1.000000 -0.656934
v -0.558675 1.000000 -0.558676
v -0.302352 1.000000 -0.729945
v -0.154137 1.000000 -0.774906
v -0.000000 -0.454761 -0.597341
v 0.116535 -0.454761 -0.585863
v 0.228592 -0.454761 -0.551871
v 0.331865 -0.454761 -0.496671
v 0.422384 -0.454761 -0.422384
v 0.496671 -0.454761 -0.331865
v 0.551871 -0.454761 -0.228593
v 0.585863 -0.454761 -0.116535
v 0.597341 -0.454761 -0.000000
v 0.585863 -0.454761 0.116535
v 0.551871 -0.454761 0.228592
v 0.496671 -0.454761 0.331865
v 0.422384 -0.454761 0.422384
v 0.331865 -0.454761 0.496671
v 0.228592 -0.454761 0.551871
v 0.116535 -0.454761 0.585863
v -0.000000 -0.454761 0.597341
v -0.116536 -0.454761 0.585863
v -0.228593 -0.454761 0.551871
v -0.331865 -0.454761 0.496671
v -0.422384 -0.454761 0.422384
v -0.496671 -0.454761 0.331865
v -0.551871 -0.454761 0.228592
v -0.585864 -0.454761 0.116535
v -0.597341 -0.454761 -0.000001
v -0.585863 -0.454761 -0.116536
v -0.551871 -0.454761 -0.228593
v -0.496671 -0.454761 -0.331865
v -0.422383 -0.454761 -0.422385
v -0.331864 -0.454761 -0.496671
v -0.228592 -0.454761 -0.551871
v -0.116535 -0.454761 -0.585863
v -0.459527 -0.454761 -0.377125
v 0.566899 -0.454761 -0.179053
vt 1.000000 0.750000
vt 1.000000 1.000000
vt 0.968750 1.000000
vt 0.968750 0.750000
vt 0.937500 1.000000
vt 0.937500 0.750000
vt 0.906250 1.000000
vt 0.906250 0.750000
vt 0.875000 1.000000
vt 0.875000 0.750000
vt 0.843750 1.000000
vt 0.843750 0.750000
vt 0.812500 1.000000
vt 0.812500 0.750000
vt 0.797956 0.750000
vt 0.797956 1.000000
vt 0.781250 1.000000
vt 0.781250 0.750000
vt 0.750000 1.000000
vt 0.750000 0.750000
vt 0.718750 1.000000
vt 0.718750 0.750000
vt 0.687500 1.000000
vt 0.687500 0.750000
vt 0.656250 1.000000
vt 0.656250 0.750000
vt 0.625000 1.000000
vt 0.625000 0.750000
vt 0.593750 1.000000
vt 0.593750 0.750000
vt 0.562500 1.000000
vt 0.562500 0.750000
vt 0.531250 1.000000
vt 0.531250 0.750000
vt 0.500000 1.000000
vt 0.500000 0.750000
vt 0.468750 1.000000
vt 0.468750 0.750000
vt 0.437500 1.000000
vt 0.437500 0.750000
vt 0.406250 1.000000
vt 0.406250 0.750000
vt 0.375000 1.000000
vt 0.375000 0.750000
vt 0.343750 1.000000
vt 0.343750 0.750000
vt 0.312500 1.000000
vt 0.312500 0.750000
vt 0.281250 1.000000
vt 0.281250 0.750000
vt 0.250000 1.000000
vt 0.250000 0.750000
vt 0.218750 1.000000
vt 0.218750 0.750000
vt 0.187500 1.000000
vt 0.187500 0.750000
vt 0.156250 1.000000
vt 0.156250 0.750000
vt 0.140625 0.750000
vt 0.140625 1.000000
vt 0.125000 1.000000
vt 0.125000 0.750000
vt 0.093750 1.000000
vt 0.093750 0.750000
vt 0.062500 1.000000
vt 0.062500 0.750000
vt 0.329647 0.369201
vt 0.304862 0.382449
vt 0.304862 0.382449
vt 0.329647 0.369201
vt 0.031250 1.000000
vt 0.031250 0.750000
vt 0.000000 1.000000
vt 0.000000 0.750000
vt 0.750000 0.490000
vt 0.796822 0.485388
vt 0.841844 0.471731
vt 0.883337 0.449553
vt 0.919706 0.419706
vt 0.949553 0.383337
vt 0.971731 0.341844
vt 0.978087 0.320890
vt 0.985388 0.296822
vt 0.990000 0.250000
vt 0.985388 0.203178
vt 0.971731 0.158156
vt 0.949553 0.116663
vt 0.919706 0.080294
vt 0.883337 0.050447
vt 0.841844 0.028269
vt 0.796822 0.014612
vt 0.750000 0.010000
vt 0.703178 0.014612
vt 0.658156 0.028269
vt 0.616663 0.050447
vt 0.580294 0.080294
vt 0.550447 0.116663
vt 0.528269 0.158156
vt 0.514611 0.203179
vt 0.510000 0.250000
vt 0.514612 0.296822
vt 0.528269 0.341844
vt 0.550447 0.383337
vt 0.565371 0.401521
vt 0.580295 0.419706
vt 0.616663 0.449553
vt 0.658156 0.471731
vt 0.703179 0.485389
vt 0.156250 0.500000
vt 0.140625 0.500000
vt 0.031250 0.500000
vt 0.000000 0.500000
vt 0.062500 0.500000
vt 0.093750 0.500000
vt 0.125000 0.500000
vt 0.187500 0.500000
vt 0.218750 0.500000
vt 0.250000 0.500000
vt 0.281250 0.500000
vt 0.312500 0.500000
vt 0.343750 0.500000
vt 0.375000 0.500000
vt 0.406250 0.500000
vt 0.437500 0.500000
vt 0.468750 0.500000
vt 0.500000 0.500000
vt 0.531250 0.500000
vt 0.562500 0.500000
vt 0.593750 0.500000
vt 0.625000 0.500000
vt 0.656250 0.500000
vt 0.687500 0.500000
vt 0.718750 0.500000
vt 0.750000 0.500000
vt 0.781250 0.500000
vt 0.797956 0.500000
vt 0.843750 0.500000
vt 0.812500 0.500000
vt 0.875000 0.500000
vt 0.906250 0.500000
vt 0.937500 0.500000
vt 0.968750 0.500000
vt 1.000000 0.500000
vt 0.250000 0.439621
vt 0.286993 0.435977
vt 0.296822 0.485388
vt 0.250000 0.490000
vt 0.322565 0.425187
vt 0.341844 0.471731
vt 0.355348 0.407664
vt 0.383337 0.449553
vt 0.384082 0.384082
vt 0.419706 0.419706
vt 0.407664 0.355348
vt 0.449553 0.383337
vt 0.425187 0.322565
vt 0.471731 0.341844
vt 0.430110 0.306336
vt 0.478087 0.320890
vt 0.435977 0.286993
vt 0.439621 0.250000
vt 0.490000 0.250000
vt 0.485388 0.296822
vt 0.435977 0.213007
vt 0.485388 0.203178
vt 0.425187 0.177435
vt 0.471731 0.158156
vt 0.407664 0.144652
vt 0.449553 0.116663
vt 0.384082 0.115918
vt 0.419706 0.080294
vt 0.355348 0.092336
vt 0.383337 0.050447
vt 0.322565 0.074813
vt 0.341844 0.028269
vt 0.286993 0.064023
vt 0.296822 0.014612
vt 0.250000 0.060379
vt 0.250000 0.010000
vt 0.213007 0.064023
vt 0.203178 0.014612
vt 0.177435 0.074813
vt 0.158156 0.028269
vt 0.144652 0.092336
vt 0.116663 0.050447
vt 0.115918 0.115918
vt 0.080294 0.080294
vt 0.092336 0.144652
vt 0.050447 0.116663
vt 0.074813 0.177436
vt 0.028269 0.158156
vt 0.064023 0.213007
vt 0.014611 0.203179
vt 0.060379 0.250000
vt 0.010000 0.250000
vt 0.064023 0.286993
vt 0.014612 0.296822
vt 0.074813 0.322565
vt 0.028269 0.341844
vt 0.092336 0.355348
vt 0.050447 0.383337
vt 0.104127 0.369715
vt 0.065371 0.401521
vt 0.115918 0.384082
vt 0.144653 0.407664
vt 0.116663 0.449553
vt 0.080295 0.419706
vt 0.177436 0.425187
vt 0.158156 0.471731
vt 0.213007 0.435977
vt 0.203179 0.485389
vt 0.250000 0.393362
vt 0.277969 0.390607
vt 0.351372 0.351372
vt 0.369201 0.329647
vt 0.382449 0.304862
vt 0.386056 0.292973
vt 0.390607 0.277969
vt 0.393362 0.250000
vt 0.390607 0.222031
vt 0.382449 0.195138
vt 0.369201 0.170352
vt 0.351372 0.148628
vt 0.329648 0.130799
vt 0.304862 0.117551
vt 0.277968 0.109393
vt 0.250000 0.106638
vt 0.222031 0.109393
vt 0.195138 0.117551
vt 0.170352 0.130799
vt 0.148628 0.148628
vt 0.130799 0.170352
vt 0.117551 0.195138
vt 0.109393 0.222032
vt 0.106638 0.250000
vt 0.109393 0.277969
vt 0.117551 0.304862
vt 0.130799 0.329648
vt 0.139713 0.340510
vt 0.148628 0.351372
vt 0.170353 0.369201
vt 0.195138 0.382449
vt 0.222032 0.390607
vt 0.277969 0.390607
vt 0.250000 0.393362
vt 0.222032 0.390607
vt 0.195138 0.382449
vt 0.170353 0.369201
vt 0.148628 0.351372
vt 0.139713 0.340510
vt 0.130799 0.329648
vt 0.117551 0.304862
vt 0.109393 0.277969
vt 0.106638 0.250000
vt 0.109393 0.222032
vt 0.117551 0.195138
vt 0.130799 0.170352
vt 0.148628 0.148628
vt 0.170352 0.130799
vt 0.195138 0.117551
vt 0.222031 0.109393
vt 0.250000 0.106638
vt 0.277968 0.109393
vt 0.304862 0.117551
vt 0.329648 0.130799
vt 0.351372 0.148628
vt 0.369201 0.170352
vt 0.382449 0.195138
vt 0.390607 0.222031
vt 0.393362 0.250000
vt 0.390607 0.277969
vt 0.386056 0.292973
vt 0.382449 0.304862
vt 0.369201 0.329647
vt 0.351372 0.351372
vn 0.0980 0.0000 -0.9952
vn 0.2903 0.0000 -0.9569
vn 0.4714 0.0000 -0.8819
vn 0.6344 0.0000 -0.7730
vn 0.7730 0.0000 -0.6344
vn 0.8819 0.0000 -0.4714
vn 0.9569 0.0000 -0.2903
vn 0.9952 0.0000 -0.0980
vn 0.9952 0.0000 0.0980
vn 0.9569 0.0000 0.2903
vn 0.8819 0.0000 0.4714
vn 0.7730 0.0000 0.6344
vn 0.6344 0.0000 0.7730
vn 0.4714 0.0000 0.8819
vn 0.2903 0.0000 0.9569
vn 0.0980 0.0000 0.9952
vn -0.0980 0.0000 0.9952
vn -0.2903 0.0000 0.9569
vn -0.4714 0.0000 0.8819
vn -0.6344 0.0000 0.7730
vn -0.7730 0.0000 0.6344
vn -0.8819 0.0000 0.4714
vn -0.9569 0.0000 0.2903
vn -0.9952 0.0000 0.0980
vn -0.9952 0.0000 -0.0980
vn -0.9569 0.0000 -0.2903
vn -0.8819 0.0000 -0.4714
vn -0.7730 0.0000 -0.6344
vn -0.6344 0.0000 -0.7730
vn -0.4714 0.0000 -0.8819
vn -0.2903 0.0000 -0.9569
vn -0.0980 0.0000 -0.9952
vn 0.0000 -1.0000 -0.0000
vn 0.0000 1.0000 0.0000
usemtl None
s off
f 67/1/1 104/2/1 103/3/1 68/4/1
f 68/4/2 103/3/2 105/5/2 69/6/2
f 69/6/3 105/5/3 106/7/3 70/8/3
f 70/8/4 106/7/4 107/9/4 71/10/4
f 71/10/5 107/9/5 108/11/5 72/12/5
f 72/12/6 108/11/6 109/13/6 73/14/6
f 102/15/7 110/16/7 112/17/7 74/18/7
f 74/18/8 112/17/8 111/19/8 75/20/8
f 75/20/9 111/19/9 113/21/9 76/22/9
f 76/22/10 113/21/10 114/23/10 77/24/10
f 77/24/11 114/23/11 115/25/11 78/26/11
f 78/26/12 115/25/12 116/27/12 79/28/12
f 79/28/13 116/27/13 117/29/13 80/30/13
f 80/30/14 117/29/14 118/31/14 81/32/14
f 81/32/15 118/31/15 119/33/15 82/34/15
f 82/34/16 119/33/16 120/35/16 83/36/16
f 83/36/17 120/35/17 121/37/17 84/38/17
f 84/38/18 121/37/18 122/39/18 85/40/18
f 85/40/19 122/39/19 123/41/19 86/42/19
f 86/42/20 123/41/20 124/43/20 87/44/20
f 87/44/21 124/43/21 125/45/21 88/46/21
f 88/46/22 125/45/22 126/47/22 89/48/22
f 89/48/23 126/47/23 127/49/23 90/50/23
f 90/50/24 127/49/24 128/51/24 91/52/24
f 91/52/25 128/51/25 129/53/25 92/54/25
f 92/54/26 129/53/26 130/55/26 93/56/26
f 93/56/27 130/55/27 131/57/27 94/58/27
f 99/59/28 132/60/28 134/61/28 95/62/28
f 95/62/29 134/61/29 133/63/29 96/64/29
f 96/64/30 133/63/30 135/65/30 97/66/30
f 8/67/19 6/68/19 173/69/19 174/70/19
f 97/66/31 135/65/31 136/71/31 98/72/31
f 98/72/32 136/71/32 104/73/32 67/74/32
f 1/75/33 3/76/33 5/77/33 7/78/33 9/79/33 11/80/33 13/81/33 100/82/33 15/83/33 17/84/33 19/85/33 21/86/33 23/87/33 25/88/33 27/89/33 29/90/33 31/91/33 33/92/33 35/93/33 37/94/33 39/95/33 41/96/33 43/97/33 45/98/33 47/99/33 49/100/33 51/101/33 53/102/33 55/103/33 65/104/33 57/105/33 59/106/33 61/107/33 63/108/33
f 94/58/28 131/57/28 132/60/28 99/59/28
f 55/109/28 94/58/28 99/59/28 65/110/28
f 63/111/32 98/72/32 67/74/32 1/112/32
f 61/113/31 97/66/31 98/72/31 63/111/31
f 59/114/30 96/64/30 97/66/30 61/113/30
f 57/115/29 95/62/29 96/64/29 59/114/29
f 65/110/28 99/59/28 95/62/28 57/115/28
f 53/116/27 93/56/27 94/58/27 55/109/27
f 51/117/26 92/54/26 93/56/26 53/116/26
f 49/118/25 91/52/25 92/54/25 51/117/25
f 47/119/24 90/50/24 91/52/24 49/118/24
f 45/120/23 89/48/23 90/50/23 47/119/23
f 43/121/22 88/46/22 89/48/22 45/120/22
f 41/122/21 87/44/21 88/46/21 43/121/21
f 39/123/20 86/42/20 87/44/20 41/122/20
f 37/124/19 85/40/19 86/42/19 39/123/19
f 35/125/18 84/38/18 85/40/18 37/124/18
f 33/126/17 83/36/17 84/38/17 35/125/17
f 31/127/16 82/34/16 83/36/16 33/126/16
f 29/128/15 81/32/15 82/34/15 31/127/15
f 27/129/14 80/30/14 81/32/14 29/128/14
f 25/130/13 79/28/13 80/30/13 27/129/13
f 23/131/12 78/26/12 79/28/12 25/130/12
f 21/132/11 77/24/11 78/26/11 23/131/11
f 19/133/10 76/22/10 77/24/10 21/132/10
f 17/134/9 75/20/9 76/22/9 19/133/9
f 15/135/8 74/18/8 75/20/8 17/134/8
f 100/136/7 102/15/7 74/18/7 15/135/7
f 11/137/6 72/12/6 73/14/6 13/138/6
f 9/139/5 71/10/5 72/12/5 11/137/5
f 7/140/4 70/8/4 71/10/4 9/139/4
f 5/141/3 69/6/3 70/8/3 7/140/3
f 3/142/2 68/4/2 69/6/2 5/141/2
f 1/143/1 67/1/1 68/4/1 3/142/1
f 13/138/7 73/14/7 102/15/7 100/136/7
f 73/14/7 109/13/7 110/16/7 102/15/7
f 138/144/34 137/145/34 103/146/34 104/147/34
f 137/145/34 139/148/34 105/149/34 103/146/34
f 139/148/34 140/150/34 106/151/34 105/149/34
f 140/150/34 141/152/34 107/153/34 106/151/34
f 141/152/34 142/154/34 108/155/34 107/153/34
f 142/154/34 143/156/34 109/157/34 108/155/34
f 143/156/34 144/158/34 110/159/34 109/157/34
f 146/160/34 145/161/34 111/162/34 112/163/34
f 145/161/34 147/164/34 113/165/34 111/162/34
f 147/164/34 148/166/34 114/167/34 113/165/34
f 148/166/34 149/168/34 115/169/34 114/167/34
f 149/168/34 150/170/34 116/171/34 115/169/34
f 150/170/34 151/172/34 117/173/34 116/171/34
f 151/172/34 152/174/34 118/175/34 117/173/34
f 152/174/34 153/176/34 119/177/34 118/175/34
f 153/176/34 154/178/34 120/179/34 119/177/34
f 154/178/34 155/180/34 121/181/34 120/179/34
f 155/180/34 156/182/34 122/183/34 121/181/34
f 156/182/34 157/184/34 123/185/34 122/183/34
f 157/184/34 158/186/34 124/187/34 123/185/34
f 158/186/34 159/188/34 125/189/34 124/187/34
f 159/188/34 160/190/34 126/191/34 125/189/34
f 160/190/34 161/192/34 127/193/34 126/191/34
f 161/192/34 162/194/34 128/195/34 127/193/34
f 162/194/34 163/196/34 129/197/34 128/195/34
f 163/196/34 164/198/34 130/199/34 129/197/34
f 164/198/34 165/200/34 131/201/34 130/199/34
f 165/200/34 166/202/34 132/203/34 131/201/34
f 168/204/34 167/205/34 133/206/34 134/207/34
f 167/205/34 169/208/34 135/209/34 133/206/34
f 169/208/34 170/210/34 136/211/34 135/209/34
f 170/210/34 138/144/34 104/147/34 136/211/34
f 166/202/34 168/204/34 134/207/34 132/203/34
f 144/158/34 146/160/34 112/163/34 110/159/34
f 2/212/34 4/213/34 137/145/34 138/144/34
f 4/213/34 6/68/34 139/148/34 137/145/34
f 6/68/34 8/67/34 140/150/34 139/148/34
f 8/67/34 10/214/34 141/152/34 140/150/34
f 10/214/34 12/215/34 142/154/34 141/152/34
f 12/215/34 14/216/34 143/156/34 142/154/34
f 14/216/34 101/217/34 144/158/34 143/156/34
f 16/218/34 18/219/34 145/161/34 146/160/34
f 18/219/34 20/220/34 147/164/34 145/161/34
f 20/220/34 22/221/34 148/166/34 147/164/34
f 22/221/34 24/222/34 149/168/34 148/166/34
f 24/222/34 26/223/34 150/170/34 149/168/34
f 26/223/34 28/224/34 151/172/34 150/170/34
f 28/224/34 30/225/34 152/174/34 151/172/34
f 30/225/34 32/226/34 153/176/34 152/174/34
f 32/226/34 34/227/34 154/178/34 153/176/34
f 34/227/34 36/228/34 155/180/34 154/178/34
f 36/228/34 38/229/34 156/182/34 155/180/34
f 38/229/34 40/230/34 157/184/34 156/182/34
f 40/230/34 42/231/34 158/186/34 157/184/34
f 42/231/34 44/232/34 159/188/34 158/186/34
f 44/232/34 46/233/34 160/190/34 159/188/34
f 46/233/34 48/234/34 161/192/34 160/190/34
f 48/234/34 50/235/34 162/194/34 161/192/34
f 50/235/34 52/236/34 163/196/34 162/194/34
f 52/236/34 54/237/34 164/198/34 163/196/34
f 54/237/34 56/238/34 165/200/34 164/198/34
f 56/238/34 66/239/34 166/202/34 165/200/34
f 58/240/34 60/241/34 167/205/34 168/204/34
f 60/241/34 62/242/34 169/208/34 167/205/34
f 62/242/34 64/243/34 170/210/34 169/208/34
f 64/243/34 2/212/34 138/144/34 170/210/34
f 66/239/34 58/240/34 168/204/34 166/202/34
f 101/217/34 16/218/34 146/160/34 144/158/34
f 172/244/34 171/245/34 202/246/34 201/247/34 200/248/34 199/249/34 203/250/34 198/251/34 197/252/34 196/253/34 195/254/34 194/255/34 193/256/34 192/257/34 191/258/34 190/259/34 189/260/34 188/261/34 187/262/34 186/263/34 185/264/34 184/265/34 183/266/34 182/267/34 181/268/34 180/269/34 179/270/34 178/271/34 204/272/34 177/273/34 176/274/34 175/275/34 174/70/34 173/69/34
f 62/242/14 60/241/14 200/248/14 201/247/14
f 36/228/1 34/227/1 187/262/1 188/261/1
f 10/214/20 8/67/20 174/70/20 175/275/20
f 64/243/15 62/242/15 201/247/15 202/246/15
f 38/229/2 36/228/2 188/261/2 189/260/2
f 12/215/21 10/214/21 175/275/21 176/274/21
f 2/212/16 64/243/16 202/246/16 171/245/16
f 40/230/3 38/229/3 189/260/3 190/259/3
f 14/216/22 12/215/22 176/274/22 177/273/22
f 58/240/12 66/239/12 203/250/12 199/249/12
f 42/231/4 40/230/4 190/259/4 191/258/4
f 101/217/23 14/216/23 177/273/23 204/272/23
f 16/218/23 101/217/23 204/272/23 178/271/23
f 44/232/5 42/231/5 191/258/5 192/257/5
f 18/219/24 16/218/24 178/271/24 179/270/24
f 46/233/6 44/232/6 192/257/6 193/256/6
f 20/220/25 18/219/25 179/270/25 180/269/25
f 48/234/7 46/233/7 193/256/7 194/255/7
f 22/221/26 20/220/26 180/269/26 181/268/26
f 50/235/8 48/234/8 194/255/8 195/254/8
f 24/222/27 22/221/27 181/268/27 182/267/27
f 52/236/9 50/235/9 195/254/9 196/253/9
f 26/223/28 24/222/28 182/267/28 183/266/28
f 54/237/10 52/236/10 196/253/10 197/252/10
f 28/224/29 26/223/29 183/266/29 184/265/29
f 56/238/11 54/237/11 197/252/11 198/251/11
f 30/225/30 28/224/30 184/265/30 185/264/30
f 4/213/17 2/212/17 171/245/17 172/244/17
f 66/239/12 56/238/12 198/251/12 203/250/12
f 32/226/31 30/225/31 185/264/31 186/263/31
f 6/68/18 4/213/18 172/244/18 173/69/18
f 60/241/13 58/240/13 199/249/13 200/248/13
f 34/227/32 32/226/32 186/263/32 187/262/32
